#!OML:ASF F:\VICON\USERDATA\INSTALL\rory3\rory3.ASF
:FULLY-SPECIFIED
:DEGREES
329
root -0.041581 17.8613 28.4502 -3.59368 1.27582 -3.29827
lowerback 9.34696 -1.82884 0.560169
upperback 0.206577 -2.21853 3.03801
thorax -4.92899 -1.07509 3.15276
lowerneck -16.3796 -2.68319 -1.92447
upperneck 22.4966 -3.27252 0.0802303
head 9.88554 -1.67581 -0.0843437
rclavicle -3.46879e-014 2.46493e-014
rhumerus -41.1189 -37.7809 -62.7267
rradius 16.0126
rwrist 18.703
rhand -17.4521 23.1063
rfingers 7.12502
rthumb 8.79905 -6.69024
lclavicle -3.46879e-014 2.46493e-014
lhumerus -23.9734 -0.0834655 82.1588
lradius 29.1433
lwrist 6.35323
lhand -25.6362 23.5754
lfingers 7.12502
lthumb 0.897102 53.5533
rfemur -21.1213 3.83136 26.9621
rtibia 30.0353
rfoot -4.5363 -3.17151
rtoes 9.96782
lfemur 5.31701 -1.89691 -18.6297
ltibia 52.0334
lfoot 17.196 -11.2793
ltoes -3.2409
330
root -0.0634956 17.8849 28.6403 -3.56054 1.26736 -3.44033
lowerback 9.31163 -1.76818 0.663511
upperback 0.110695 -2.12347 3.06372
thorax -5.01706 -1.02891 3.1105
lowerneck -16.21 -2.74431 -1.95443
upperneck 22.5185 -3.37288 0.153611
head 9.86445 -1.71694 -0.064782
rclavicle -8.56016e-015 1.90833e-014
rhumerus -40.9428 -37.4122 -62.9874
rradius 15.9916
rwrist 18.5768
rhand -17.4257 23.5148
rfingers 7.12502
rthumb 8.82453 -6.28066
lclavicle -8.56016e-015 1.90833e-014
lhumerus -24.337 -0.34305 82.3721
lradius 28.9026
lwrist 6.32622
lhand -27.0778 24.0224
lfingers 7.12502
lthumb -0.495252 54.0015
rfemur -20.3772 4.05706 27.2869
rtibia 29.8677
rfoot -4.83995 -3.43663
rtoes 11.5403
lfemur 3.61772 -1.56392 -18.2063
ltibia 54.5947
lfoot 19.4834 -11.8378
ltoes 0.537813
331
root -0.0798497 17.9042 28.8127 -3.50422 1.13285 -3.98256
lowerback 9.46079 -1.71377 1.1903
upperback 0.013924 -1.97891 3.19758
thorax -5.22285 -0.966639 2.94415
lowerneck -16.1163 -2.73743 -1.92108
upperneck 22.5065 -3.38666 0.203038
head 9.84288 -1.71505 -0.0533904
rclavicle 4.12789e-014 -2.34566e-014
rhumerus -40.7665 -37.8503 -62.7737
rradius 15.6474
rwrist 19.5475
rhand -17.5008 23.5189
rfingers 7.12502
rthumb 8.75208 -6.2796
lclavicle 4.12789e-014 -2.34566e-014
lhumerus -24.4802 -0.675768 82.5613
lradius 28.4572
lwrist 6.40526
lhand -27.4058 24.7661
lfingers 7.12502
lthumb -0.812052 54.7443
rfemur -19.8143 4.33926 28.0507
rtibia 29.8357
rfoot -5.24673 -3.7254
rtoes 12.1099
lfemur 1.78739 -1.10569 -17.3355
ltibia 57.0632
lfoot 21.162 -12.2994
ltoes 2.62678
332
root -0.0908106 17.9156 28.9821 -3.44062 1.02999 -4.21351
lowerback 9.63232 -1.64091 1.47276
upperback -0.0641669 -1.84027 3.22177
thorax -5.4154 -0.903625 2.80071
lowerneck -16.0501 -2.75563 -2.06244
upperneck 22.438 -3.43455 0.442776
head 9.81416 -1.72165 0.0488468
rclavicle -1.40019e-014 4.69132e-014
rhumerus -40.3929 -38.3679 -62.6553
rradius 15.1911
rwrist 20.6747
rhand -17.6205 23.5777
rfingers 7.12502
rthumb 8.63654 -6.22563
lclavicle -1.40019e-014 4.69132e-014
lhumerus -24.4324 -1.09849 82.7608
lradius 27.7
lwrist 6.60006
lhand -27.4598 25.095
lfingers 7.12502
lthumb -0.864194 55.073
rfemur -19.2971 4.61975 28.4282
rtibia 29.8833
rfoot -5.55466 -3.87135
rtoes 13.3706
lfemur 0.176306 -0.753686 -16.9167
ltibia 59.2972
lfoot 21.3849 -12.0582
ltoes 4.57891
333
root -0.108144 17.9231 29.1626 -3.48934 0.982186 -4.32239
lowerback 9.63848 -1.61474 1.52441
upperback 0.0327988 -1.80212 3.23233
thorax -5.31963 -0.886744 2.77458
lowerneck -16.2413 -2.76972 -2.16142
upperneck 22.4382 -3.46357 0.606063
head 9.85589 -1.72336 0.115579
rclavicle -9.81499e-016 2.78299e-015
rhumerus -39.3379 -37.7837 -63.695
rradius 15.2263
rwrist 20.3451
rhand -17.7273 23.3051
rfingers 7.12502
rthumb 8.53354 -6.50249
lclavicle -9.81499e-016 2.78299e-015
lhumerus -24.3705 -1.37008 82.8851
lradius 27.1276
lwrist 6.84466
lhand -27.2557 24.1077
lfingers 7.12502
lthumb -0.667008 54.0864
rfemur -18.6708 4.90388 28.7023
rtibia 30.0104
rfoot -5.88037 -4.09765
rtoes 14.313
lfemur -1.15903 -0.501394 -16.6748
ltibia 61.2806
lfoot 20.6063 -11.3163
ltoes 6.95835
334
root -0.130329 17.9336 29.3412 -3.56788 0.914046 -4.50452
lowerback 9.67467 -1.54531 1.63903
upperback 0.0689651 -1.6965 3.23385
thorax -5.30907 -0.837633 2.69711
lowerneck -16.1265 -2.78436 -2.03397
upperneck 22.3368 -3.51643 0.593415
head 9.79604 -1.73913 0.0854279
rclavicle 9.81499e-015 -1.82882e-014
rhumerus -38.3226 -36.1542 -65.3556
rradius 15.7476
rwrist 18.8433
rhand -17.9491 22.5772
rfingers 7.12502
rthumb 8.31941 -7.23899
lclavicle 9.81499e-015 -1.82882e-014
lhumerus -24.7511 -1.01605 82.8603
lradius 27.0672
lwrist 6.24146
lhand -26.8931 23.5543
lfingers 7.12502
lthumb -0.316884 53.5338
rfemur -18.0473 5.26576 29.0911
rtibia 30.2437
rfoot -6.51654 -4.3662
rtoes 14.0883
lfemur -2.49059 -0.112143 -16.2953
ltibia 63.0899
lfoot 19.1354 -10.9152
ltoes 6.35202
335
root -0.147574 17.9381 29.5226 -3.79045 0.871914 -4.48377
lowerback 9.83391 -1.45838 1.6654
upperback 0.102194 -1.57827 3.1314
thorax -5.37108 -0.780937 2.56273
lowerneck -15.9502 -2.81928 -1.89251
upperneck 22.2382 -3.58141 0.497043
head 9.72388 -1.76947 0.0233078
rclavicle 9.08819e-015 -2.3059e-014
rhumerus -37.6551 -35.0667 -66.501
rradius 16.0605
rwrist 17.9661
rhand -17.9158 22.5629
rfingers 7.12502
rthumb 8.35158 -7.25196
lclavicle 9.08819e-015 -2.3059e-014
lhumerus -25.3237 -0.203526 82.6876
lradius 27.2926
lwrist 4.8317
lhand -26.7834 23.6332
lfingers 7.12502
lthumb -0.210925 53.6128
rfemur -17.2418 5.36915 29.258
rtibia 30.4926
rfoot -7.21946 -4.44934
rtoes 14.4331
lfemur -3.44283 0.286491 -16.1947
ltibia 64.6729
lfoot 16.8432 -10.6419
ltoes 3.15706
336
root -0.16208 17.9435 29.7014 -3.9927 0.850791 -4.47014
lowerback 9.99566 -1.40226 1.70883
upperback 0.163377 -1.49899 3.04804
thorax -5.40339 -0.743849 2.4432
lowerneck -15.9272 -2.90387 -1.97485
upperneck 22.1656 -3.71205 0.637995
head 9.70033 -1.82095 0.0697188
rclavicle -3.09856e-014 3.18055e-015
rhumerus -36.9191 -34.048 -67.5862
rradius 16.3785
rwrist 17.26
rhand -17.6899 22.8869
rfingers 7.12502
rthumb 8.56961 -6.91917
lclavicle -3.09856e-014 3.18055e-015
lhumerus -25.7068 0.638174 82.5067
lradius 27.2856
lwrist 3.54035
lhand -26.8646 23.3252
lfingers 7.12502
lthumb -0.289359 53.3047
rfemur -16.4508 5.44087 29.4157
rtibia 30.7014
rfoot -7.86942 -4.55467
rtoes 14.2956
lfemur -4.56689 0.698261 -16.1145
ltibia 66.152
lfoot 14.5655 -10.1739
ltoes -0.115675
337
root -0.17393 17.9592 29.8743 -4.12233 0.883369 -4.42297
lowerback 10.1331 -1.38662 1.66252
upperback 0.259129 -1.48441 2.99698
thorax -5.38042 -0.736204 2.41555
lowerneck -15.972 -2.92162 -2.03841
upperneck 22.078 -3.74508 0.75097
head 9.68204 -1.82843 0.115118
rclavicle 1.79527e-014 -2.66371e-014
rhumerus -36.0663 -33.3991 -68.4718
rradius 16.5973
rwrist 16.9263
rhand -17.4564 23.1523
rfingers 7.12502
rthumb 8.79495 -6.64447
lclavicle 1.79527e-014 -2.66371e-014
lhumerus -25.93 0.881759 82.4742
lradius 27.2157
lwrist 3.24096
lhand -26.6996 23.9961
lfingers 7.12502
lthumb -0.129941 53.9758
rfemur -15.8034 5.58271 29.5067
rtibia 30.9031
rfoot -8.47366 -4.78117
rtoes 14.0357
lfemur -5.94857 0.937747 -16.1227
ltibia 67.4467
lfoot 12.8079 -9.19043
ltoes -1.07219
338
root -0.182121 17.9709 30.0426 -4.10355 0.90689 -4.53292
lowerback 10.1289 -1.38924 1.78157
upperback 0.346471 -1.4763 3.0115
thorax -5.28925 -0.735321 2.36009
lowerneck -16.1294 -2.90023 -2.05734
upperneck 22.0807 -3.70702 0.754967
head 9.71243 -1.81076 0.122243
rclavicle 4.12478e-015 1.23246e-014
rhumerus -35.0503 -33.2673 -69.0749
rradius 16.4243
rwrist 17.1463
rhand -17.4717 23.4169
rfingers 7.12502
rthumb 8.78017 -6.38042
lclavicle 4.12478e-015 1.23246e-014
lhumerus -26.0347 1.1771 82.5101
lradius 27.0267
lwrist 3.08295
lhand -26.7572 22.711
lfingers 7.12502
lthumb -0.185612 52.6907
rfemur -15.3286 5.70211 29.7708
rtibia 31.011
rfoot -8.94337 -5.04371
rtoes 13.3854
lfemur -7.38367 1.07946 -15.9571
ltibia 68.5704
lfoot 10.7793 -8.08234
ltoes -2.83566
339
root -0.193316 17.9714 30.2116 -4.12226 0.900615 -4.70905
lowerback 10.0635 -1.36213 2.01122
upperback 0.441584 -1.42089 2.9866
thorax -5.16044 -0.714047 2.19207
lowerneck -16.2387 -2.91024 -1.9355
upperneck 22.0821 -3.71605 0.614456
head 9.72789 -1.82011 0.0504178
rclavicle -5.9946e-015 -1.74931e-014
rhumerus -34.0862 -33.0496 -69.8236
rradius 16.4128
rwrist 17.2268
rhand -17.4413 23.2385
rfingers 7.12502
rthumb 8.80947 -6.55763
lclavicle -5.9946e-015 -1.74931e-014
lhumerus -26.116 1.00118 82.5764
lradius 26.8441
lwrist 3.47689
lhand -27.7159 21.1607
lfingers 7.12502
lthumb -1.11155 51.1375
rfemur -14.7128 5.79462 30.1273
rtibia 31.08
rfoot -9.45085 -5.36676
rtoes 12.7702
lfemur -8.66016 1.21367 -15.7013
ltibia 69.5341
lfoot 8.66433 -7.3954
ltoes -6.40568
340
root -0.204734 17.974 30.382 -4.25224 0.941691 -4.93595
lowerback 10.238 -1.3347 2.24805
upperback 0.418192 -1.34677 3.01757
thorax -5.28951 -0.682572 2.08667
lowerneck -16.1419 -2.95543 -2.03969
upperneck 22.1616 -3.75871 0.631978
head 9.74122 -1.84694 0.0690211
rclavicle 1.1045e-014 2.5842e-014
rhumerus -33.371 -31.8186 -70.7812
rradius 16.8514
rwrist 16.3042
rhand -17.0622 23.4466
rfingers 7.12502
rthumb 9.17535 -6.33375
lclavicle 1.1045e-014 2.5842e-014
lhumerus -26.4599 1.15455 82.6572
lradius 26.6594
lwrist 3.31652
lhand -27.9539 21.88
lfingers 7.12502
lthumb -1.34142 51.8555
rfemur -13.9336 5.83843 30.5424
rtibia 31.1052
rfoot -9.95771 -5.72498
rtoes 12.586
lfemur -9.82862 1.32062 -15.3897
ltibia 70.3495
lfoot 7.27162 -7.38191
ltoes -7.94791
